<svg viewBox="0 0 86.96 48" xmlns="http://www.w3.org/2000/svg"><path d="m1.43,0H0v48h1.43V0Zm10.52,13.94l2.15-8.19h-1.86l-1.13,5.3c-.09.41-.16.83-.19,1.25h-.05c-.05-.37-.09-.72-.19-1.25l-1.15-5.3h-1.88l2.17,8.19h2.14Zm4.77.14c1.2,0,2.13-.62,2.35-1.75l-1.43-.43c-.11.69-.46.95-.89.95-.62,0-.94-.43-.96-1.44h3.31v-.73c0-1.64-.87-2.63-2.45-2.63s-2.53.95-2.53,3.03,1.02,3.01,2.61,3.01Zm-.1-5.03c.52,0,.78.3.78,1.41h-1.62c.02-1.07.34-1.41.84-1.41Zm5.21,2.28c0-.52.08-.97.36-1.26.12-.12.27-.22.43-.28.16-.06.33-.09.5-.08.11,0,.23,0,.34.02v-1.7s-.07-.01-.1-.01c-.9,0-1.42.62-1.64,1.52v-1.38h-1.58v5.77h1.68v-2.61Zm4.84,2.74c1.2,0,2.13-.62,2.35-1.75l-1.43-.43c-.11.69-.46.95-.89.95-.62,0-.94-.43-.96-1.44h3.31v-.73c0-1.64-.87-2.63-2.45-2.63s-2.53.95-2.53,3.03c0,2.14,1.02,3.01,2.61,3.01Zm-.1-5.03c.52,0,.78.3.78,1.41h-1.62c.02-1.07.34-1.41.84-1.41Zm5.21,1.5c0-.83.26-1.23.78-1.23.45,0,.65.3.65.96v3.67h1.71v-3.91c0-1.34-.52-1.99-1.58-1.99-.78,0-1.32.39-1.63,1.16v-1.03h-1.62v5.77h1.68v-3.39Zm6.04-2.38h-1.67v5.77h1.67v-5.77Zm.03-2.46h-1.74v1.64h1.74v-1.64Zm.83,9.25c0,.83.89,1.36,2.48,1.36,1.81,0,2.83-.76,2.83-2.01,0-.99-.64-1.6-1.81-1.68l-1.4-.09c-.43-.02-.63-.17-.63-.43,0-.05,0-.11.04-.16.03-.05.06-.09.11-.12.3.08.61.12.93.12,1.58,0,2.33-.76,2.33-1.95,0-.63-.22-1.15-.66-1.5.19-.12.41-.18.63-.17.16,0,.32.02.48.06v-1.18c-.07-.02-.15-.03-.23-.02-.77,0-1.27.36-1.46,1.01-.35-.11-.72-.17-1.09-.16-1.56,0-2.34.8-2.34,1.97,0,.75.32,1.34.95,1.66-.61.18-.97.59-.97,1.16,0,.48.28.86.77,1.05-.61.21-.95.59-.95,1.08Zm2.53-6.04c.46,0,.7.35.7,1.08s-.24,1.1-.7,1.1-.72-.36-.72-1.1.25-1.08.72-1.08Zm-1.03,5.09s.08.01.13.01l1.56.08c.45.02.65.23.65.6,0,.43-.38.7-1.29.7-.77,0-1.24-.3-1.24-.84,0-.2.06-.4.19-.55Zm6.3-8.29h-1.74v1.64h1.74v-1.64Zm-.03,2.46h-1.67v5.77h1.67v-5.77Zm2.96,2.38c0-.83.26-1.23.78-1.23.45,0,.65.3.65.96v3.67h1.71v-3.91c0-1.34-.52-1.99-1.58-1.99-.78,0-1.32.39-1.63,1.16v-1.03h-1.63v5.77h1.69v-3.39Zm3.96,4.42c0,.83.89,1.36,2.48,1.36,1.81,0,2.83-.76,2.83-2.01,0-.99-.64-1.6-1.81-1.68l-1.4-.09c-.43-.02-.63-.17-.63-.43,0-.05,0-.11.03-.16.03-.05.06-.09.11-.12.3.08.61.12.93.12,1.58,0,2.33-.76,2.33-1.95,0-.63-.22-1.15-.66-1.5.19-.12.41-.18.63-.17.16,0,.32.02.48.06v-1.18c-.07-.02-.15-.03-.23-.02-.77,0-1.27.36-1.46,1.01-.35-.11-.72-.17-1.09-.16-1.56,0-2.34.8-2.34,1.97,0,.75.32,1.34.95,1.66-.61.18-.97.59-.97,1.16,0,.48.28.86.77,1.05-.61.21-.94.59-.94,1.08Zm2.53-6.04c.46,0,.7.35.7,1.08s-.24,1.1-.7,1.1-.72-.36-.72-1.1.24-1.08.72-1.08Zm-1.03,5.09s.08.01.13.01l1.56.08c.45.02.65.23.65.6,0,.43-.38.7-1.29.7-.77,0-1.24-.3-1.24-.84,0-.2.06-.4.19-.55Zm-44.65,5.7h-1.78v8.19h1.78v-8.19Zm6.14,8.19v-3.91c0-1.34-.52-2-1.58-2-.78,0-1.32.39-1.63,1.16v-1.03h-1.62v5.77h1.68v-3.39c0-.83.26-1.23.78-1.23.45,0,.65.3.65.96v3.67h1.71Zm6.06,0v-3.91c0-1.34-.52-2-1.58-2-.78,0-1.32.39-1.63,1.16v-1.03h-1.62v5.77h1.68v-3.39c0-.83.26-1.23.78-1.23.45,0,.65.3.65.96v3.67h1.71Zm6.16-2.88c0-2.14-1.07-3.03-2.6-3.03s-2.6.88-2.6,3.03,1.07,3.03,2.6,3.03,2.6-.88,2.6-3.03Zm-2.6,1.85c-.52,0-.85-.39-.85-1.85s.33-1.84.85-1.84.85.39.85,1.84-.33,1.85-.85,1.85Zm5.7-1.35c-.06.33-.11.61-.14.93h-.03c-.03-.31-.08-.63-.14-.93l-.72-3.38h-1.75l1.66,5.77h1.91l1.66-5.77h-1.74l-.71,3.38Zm7.68.93v-2.4c0-1.45-.7-2.05-2.31-2.05-1.43,0-2.43.63-2.45,2.08h1.71c.01-.63.18-.97.72-.97.43,0,.62.23.62.78v.43l-1.13.19c-.69.13-1.19.32-1.5.59-.18.16-.32.35-.42.57-.1.22-.14.45-.13.69,0,1.01.64,1.68,1.68,1.68.81,0,1.44-.42,1.62-1.04,0,.3.03.6.08.9h1.65c-.1-.48-.14-.97-.13-1.46Zm-1.67-.46c0,.57-.34.92-.85.92-.4,0-.62-.28-.62-.7,0-.5.27-.77.81-.88l.65-.14v.8Zm6.08.55c-.15.02-.3.04-.46.03-.48,0-.72-.28-.72-.78v-2.5h1.15v-1.15h-1.15v-1.97l-1.7.62v1.35h-.83v1.15h.83v2.92c0,1.19.57,1.8,1.91,1.8.32,0,.64-.03.95-.09v-1.38Zm2.61-6.85h-1.74v1.64h1.74v-1.64Zm-.03,2.46h-1.67v5.77h1.67v-5.77Zm3.52-.14c-1.52,0-2.53.95-2.53,3.03s1.02,3.03,2.61,3.03c1.2,0,2.13-.62,2.35-1.75l-1.43-.43c-.11.69-.46.95-.89.95-.62,0-.94-.43-.96-1.44h3.31v-.74c0-1.64-.87-2.64-2.45-2.64Zm-.86,2.42c.02-1.07.34-1.41.84-1.41s.78.3.78,1.41h-1.62Zm8.91-2.28h-1.74l-.72,3.38c-.06.33-.11.61-.14.93h-.03c-.03-.31-.08-.63-.14-.93l-.72-3.38h-1.75l1.66,5.77h1.91l1.66-5.77Zm5.27,4.15l-1.43-.43c-.11.69-.46.95-.89.95-.62,0-.94-.43-.96-1.44h3.31v-.74c0-1.64-.87-2.63-2.45-2.63s-2.53.95-2.53,3.03,1.02,3.03,2.61,3.03c1.2,0,2.13-.63,2.35-1.76Zm-2.46-3.27c.52,0,.78.3.78,1.41h-1.61c.02-1.07.34-1.41.83-1.41Zm-49.98,15.84h1.4v.21c0,1.12-.4,1.81-1.24,1.81-.96,0-1.41-.72-1.41-2.99,0-2.14.47-2.86,1.37-2.86.78,0,1.12.54,1.2,1.56l1.75-.33c-.11-1.63-1.12-2.57-2.93-2.57-2.05,0-3.24,1.3-3.24,4.21s1,4.37,2.8,4.37c1.04,0,1.74-.55,2.03-1.45l.07,1.26h1.29v-4.54h-3.09v1.34Zm6.63-2.7c-1.52,0-2.53.95-2.53,3.03s1.02,3.03,2.61,3.03c1.2,0,2.13-.62,2.35-1.75l-1.43-.43c-.11.69-.46.95-.89.95-.62,0-.94-.43-.96-1.44h3.31v-.74c0-1.64-.87-2.63-2.45-2.63Zm-.86,2.42c.02-1.07.34-1.41.84-1.41s.78.3.78,1.41h-1.62Zm7.62-2.42c-.78,0-1.32.39-1.63,1.16v-1.03h-1.63v5.77h1.68v-3.39c0-.83.26-1.23.78-1.23.45,0,.65.3.65.96v3.67h1.71v-3.91c0-1.34-.52-1.99-1.57-1.99Zm5.06,0c-1.52,0-2.53.95-2.53,3.03s1.02,3.03,2.61,3.03c1.2,0,2.13-.62,2.35-1.75l-1.43-.43c-.11.69-.46.95-.89.95-.62,0-.94-.43-.96-1.44h3.32v-.74c0-1.64-.88-2.63-2.46-2.63Zm-.86,2.42c.02-1.07.34-1.41.84-1.41s.78.3.78,1.41h-1.62Zm6.64-2.42c-1.52,0-2.53.95-2.53,3.03s1.02,3.03,2.61,3.03c1.2,0,2.13-.62,2.35-1.75l-1.43-.43c-.11.69-.46.95-.89.95-.62,0-.94-.43-.96-1.44h3.31v-.74c0-1.64-.87-2.63-2.45-2.63Zm-.86,2.42c.02-1.07.34-1.41.84-1.41s.78.3.78,1.41h-1.62Zm6.44-1.28c.25,0,.49.06.7.2.21.14.37.34.45.57l1.1-.69c-.32-.78-1.16-1.22-2.23-1.22-1.35,0-2.26.74-2.26,1.8,0,.9.57,1.44,1.48,1.67l.87.22c.5.13.6.3.6.61s-.28.52-.72.52c-.3,0-.58-.1-.82-.27-.24-.17-.43-.41-.54-.68l-1.11.82c.41.93,1.4,1.36,2.43,1.36,1.42,0,2.28-.83,2.28-1.87,0-.95-.45-1.5-1.43-1.74l-.92-.23c-.4-.1-.56-.25-.56-.54,0-.32.23-.51.68-.51Zm9.28-1.14c-.72,0-1.23.36-1.56,1.11-.22-.76-.66-1.11-1.39-1.11s-1.23.36-1.51,1.12v-.98h-1.63v5.77h1.68v-3.56c0-.7.23-1.07.68-1.07.4,0,.58.29.58.91v3.71h1.68v-3.55c0-.72.23-1.07.68-1.07.4,0,.58.28.58.91v3.71h1.7v-4.01c0-1.22-.53-1.89-1.5-1.89Zm4.42.14h-1.67v5.77h1.67v-5.77Zm.03-2.46h-1.74v1.64h1.74v-1.64Zm4.42,3.26c-.22-.62-.73-.95-1.41-.95-1.2,0-1.99.96-1.99,3.06s.77,2.99,2.01,2.99c.33,0,.65-.1.92-.3.27-.2.46-.48.56-.79v.96h1.64v-8.36h-1.72v3.4Zm.02,2.65c0,.8-.28,1.23-.79,1.23-.57,0-.85-.42-.85-1.78s.27-1.85.87-1.85c.49,0,.77.45.77,1.22v1.16Zm6.11-2.65c-.22-.62-.73-.95-1.41-.95-1.2,0-1.99.96-1.99,3.06s.77,2.99,2.01,2.99c.33,0,.65-.1.92-.3.27-.2.46-.48.56-.79v.96h1.64v-8.36h-1.72v3.4Zm.02,2.65c0,.8-.28,1.23-.79,1.23-.57,0-.85-.42-.85-1.78s.28-1.85.87-1.85c.49,0,.77.45.77,1.22v1.16Zm5.19-3.6c-1.52,0-2.53.95-2.53,3.03s1.02,3.03,2.61,3.03c1.2,0,2.13-.62,2.35-1.75l-1.43-.43c-.11.69-.46.95-.89.95-.62,0-.94-.43-.96-1.44h3.31v-.74c0-1.64-.87-2.63-2.45-2.63Zm-.86,2.42c.02-1.07.34-1.41.84-1.41s.78.3.78,1.41h-1.62Zm6-4.88h-1.68v8.36h1.68v-8.36Zm3.5,2.46c-1.52,0-2.53.95-2.53,3.03s1.02,3.03,2.61,3.03c1.2,0,2.13-.62,2.35-1.75l-1.43-.43c-.11.69-.46.95-.89.95-.62,0-.94-.43-.96-1.44h3.31v-.74c0-1.64-.87-2.63-2.45-2.63Zm-.86,2.42c.02-1.07.34-1.41.84-1.41s.78.3.78,1.41h-1.62Zm7.56-2.42c-.78,0-1.32.39-1.63,1.16v-1.03h-1.63v5.77h1.68v-3.39c0-.83.26-1.23.78-1.23.45,0,.65.3.65.96v3.67h1.71v-3.91c0-1.34-.52-1.99-1.57-1.99Z"></path></svg>